<?xml version="1.0" encoding="UTF-8"?>
<svg xmlns="http://www.w3.org/2000/svg" xmlns:xlink="http://www.w3.org/1999/xlink" width="75pt" height="74.999997pt" viewBox="0 0 75 74.999997" version="1.2">
<defs>
<clipPath id="clip1">
  <path d="M 2 8.804688 L 35 8.804688 L 35 66 L 2 66 Z M 2 8.804688 "/>
</clipPath>
<clipPath id="clip2">
  <path d="M 40 8.804688 L 73.984375 8.804688 L 73.984375 66 L 40 66 Z M 40 8.804688 "/>
</clipPath>
</defs>
<g id="surface1">
<g clip-path="url(#clip1)" clip-rule="nonzero">
<path style=" stroke:none;fill-rule:nonzero;fill:rgb(21.958923%,71.369934%,100%);fill-opacity:1;" d="M 33.160156 11.78125 C 33.355469 11.78125 33.542969 11.742188 33.726562 11.667969 C 33.90625 11.59375 34.066406 11.484375 34.207031 11.34375 C 34.347656 11.207031 34.453125 11.042969 34.527344 10.863281 C 34.605469 10.679688 34.640625 10.492188 34.640625 10.292969 C 34.640625 10.09375 34.605469 9.90625 34.527344 9.722656 C 34.453125 9.539062 34.347656 9.378906 34.207031 9.242188 C 34.066406 9.101562 33.90625 8.992188 33.726562 8.917969 C 33.542969 8.84375 33.355469 8.804688 33.160156 8.804688 C 32.136719 8.804688 31.121094 8.855469 30.105469 8.957031 C 29.089844 9.058594 28.082031 9.210938 27.082031 9.410156 C 26.082031 9.613281 25.09375 9.859375 24.117188 10.160156 C 23.140625 10.457031 22.183594 10.800781 21.242188 11.191406 C 20.300781 11.585938 19.378906 12.023438 18.480469 12.503906 C 17.578125 12.988281 16.707031 13.515625 15.859375 14.082031 C 15.011719 14.652344 14.191406 15.261719 13.402344 15.910156 C 12.613281 16.558594 11.859375 17.246094 11.136719 17.96875 C 10.417969 18.695312 9.734375 19.449219 9.085938 20.242188 C 8.4375 21.03125 7.832031 21.851562 7.265625 22.703125 C 6.699219 23.554688 6.171875 24.429688 5.691406 25.332031 C 5.210938 26.234375 4.773438 27.160156 4.382812 28.105469 C 3.992188 29.050781 3.648438 30.011719 3.351562 30.992188 C 3.054688 31.972656 2.808594 32.960938 2.609375 33.964844 C 2.40625 34.96875 2.257812 35.980469 2.15625 37 C 2.054688 38.015625 2.003906 39.039062 2.003906 40.0625 L 2.003906 48.992188 C 2 49.640625 2.039062 50.285156 2.113281 50.925781 C 2.1875 51.570312 2.296875 52.207031 2.445312 52.835938 C 2.597656 53.46875 2.78125 54.085938 3.003906 54.695312 C 3.226562 55.300781 3.484375 55.894531 3.777344 56.472656 C 4.070312 57.050781 4.394531 57.605469 4.75 58.144531 C 5.109375 58.683594 5.496094 59.199219 5.917969 59.691406 C 6.335938 60.1875 6.78125 60.652344 7.253906 61.089844 C 7.730469 61.53125 8.226562 61.941406 8.75 62.320312 C 9.273438 62.703125 9.8125 63.050781 10.378906 63.367188 C 10.941406 63.683594 11.519531 63.964844 12.117188 64.210938 C 12.714844 64.460938 13.324219 64.671875 13.945312 64.847656 C 14.566406 65.023438 15.195312 65.160156 15.832031 65.257812 C 16.46875 65.359375 17.109375 65.421875 17.757812 65.445312 C 18.402344 65.472656 19.046875 65.457031 19.6875 65.40625 C 20.332031 65.351562 20.96875 65.261719 21.601562 65.136719 C 22.234375 65.007812 22.859375 64.84375 23.472656 64.640625 C 24.085938 64.4375 24.683594 64.199219 25.269531 63.929688 C 25.855469 63.65625 26.421875 63.347656 26.96875 63.007812 C 27.519531 62.667969 28.046875 62.296875 28.550781 61.894531 C 29.058594 61.492188 29.539062 61.058594 29.992188 60.601562 C 30.445312 60.140625 30.871094 59.65625 31.269531 59.144531 C 31.667969 58.632812 32.03125 58.101562 32.367188 57.546875 C 32.703125 56.996094 33.003906 56.421875 33.269531 55.832031 C 33.535156 55.242188 33.769531 54.640625 33.964844 54.023438 C 34.160156 53.40625 34.320312 52.78125 34.441406 52.144531 C 34.5625 51.507812 34.648438 50.867188 34.695312 50.222656 C 34.742188 49.578125 34.75 48.929688 34.71875 48.285156 C 34.691406 47.636719 34.621094 46.992188 34.515625 46.355469 C 34.410156 45.714844 34.269531 45.085938 34.089844 44.464844 C 33.910156 43.84375 33.691406 43.234375 33.441406 42.636719 C 33.191406 42.039062 32.90625 41.460938 32.585938 40.898438 C 32.265625 40.335938 31.914062 39.796875 31.527344 39.273438 C 31.144531 38.753906 30.730469 38.257812 30.289062 37.785156 C 29.847656 37.316406 29.378906 36.871094 28.882812 36.453125 C 28.390625 36.039062 27.871094 35.652344 27.332031 35.300781 C 26.792969 34.945312 26.234375 34.621094 25.65625 34.335938 C 25.078125 34.046875 24.484375 33.792969 23.875 33.574219 C 23.269531 33.359375 22.652344 33.175781 22.023438 33.03125 C 21.390625 32.886719 20.757812 32.78125 20.117188 32.710938 C 19.472656 32.644531 18.828125 32.613281 18.183594 32.621094 C 17.539062 32.625 16.898438 32.671875 16.257812 32.753906 C 15.617188 32.839844 14.984375 32.960938 14.359375 33.117188 C 13.730469 33.277344 13.117188 33.472656 12.515625 33.703125 C 11.914062 33.9375 11.324219 34.203125 10.753906 34.503906 C 10.183594 34.804688 9.632812 35.140625 9.097656 35.507812 C 8.566406 35.871094 8.058594 36.269531 7.574219 36.695312 C 7.089844 37.125 6.628906 37.578125 6.199219 38.058594 C 5.769531 38.542969 5.367188 39.046875 4.992188 39.574219 C 5.011719 38.660156 5.070312 37.746094 5.175781 36.839844 C 5.28125 35.929688 5.429688 35.027344 5.621094 34.132812 C 5.8125 33.238281 6.046875 32.351562 6.324219 31.480469 C 6.601562 30.609375 6.917969 29.753906 7.28125 28.910156 C 7.640625 28.070312 8.039062 27.25 8.480469 26.445312 C 8.917969 25.644531 9.398438 24.863281 9.910156 24.109375 C 10.425781 23.355469 10.976562 22.625 11.5625 21.921875 C 12.148438 21.21875 12.765625 20.546875 13.417969 19.90625 C 14.066406 19.265625 14.746094 18.65625 15.457031 18.078125 C 16.164062 17.503906 16.902344 16.964844 17.664062 16.460938 C 18.425781 15.957031 19.207031 15.488281 20.015625 15.0625 C 20.824219 14.632812 21.648438 14.246094 22.492188 13.898438 C 23.335938 13.550781 24.195312 13.246094 25.070312 12.980469 C 25.941406 12.71875 26.828125 12.496094 27.722656 12.320312 C 28.617188 12.140625 29.519531 12.007812 30.425781 11.917969 C 31.335938 11.828125 32.246094 11.78125 33.160156 11.78125 Z M 33.160156 11.78125 "/>
</g>
<g clip-path="url(#clip2)" clip-rule="nonzero">
<path style=" stroke:none;fill-rule:nonzero;fill:rgb(21.958923%,71.369934%,100%);fill-opacity:1;" d="M 56.894531 32.617188 C 55.589844 32.621094 54.300781 32.777344 53.03125 33.089844 C 51.757812 33.402344 50.542969 33.859375 49.386719 34.464844 C 48.226562 35.070312 47.152344 35.804688 46.167969 36.667969 C 45.1875 37.535156 44.316406 38.503906 43.566406 39.574219 C 43.582031 38.660156 43.644531 37.746094 43.75 36.839844 C 43.851562 35.929688 44 35.027344 44.191406 34.132812 C 44.386719 33.238281 44.621094 32.351562 44.898438 31.480469 C 45.175781 30.609375 45.492188 29.753906 45.851562 28.910156 C 46.214844 28.070312 46.613281 27.25 47.050781 26.445312 C 47.492188 25.644531 47.96875 24.863281 48.484375 24.109375 C 49 23.355469 49.550781 22.625 50.136719 21.921875 C 50.722656 21.21875 51.339844 20.546875 51.988281 19.90625 C 52.640625 19.265625 53.320312 18.65625 54.03125 18.078125 C 54.738281 17.503906 55.472656 16.964844 56.234375 16.460938 C 56.996094 15.957031 57.78125 15.488281 58.589844 15.0625 C 59.394531 14.632812 60.222656 14.246094 61.066406 13.898438 C 61.910156 13.550781 62.769531 13.246094 63.640625 12.980469 C 64.515625 12.71875 65.402344 12.496094 66.296875 12.320312 C 67.191406 12.140625 68.09375 12.007812 69 11.917969 C 69.910156 11.828125 70.820312 11.78125 71.730469 11.78125 C 71.929688 11.78125 72.117188 11.742188 72.300781 11.667969 C 72.480469 11.59375 72.640625 11.484375 72.78125 11.34375 C 72.917969 11.207031 73.027344 11.042969 73.101562 10.863281 C 73.175781 10.679688 73.214844 10.492188 73.214844 10.292969 C 73.214844 10.09375 73.175781 9.90625 73.101562 9.722656 C 73.027344 9.539062 72.917969 9.378906 72.78125 9.242188 C 72.640625 9.101562 72.480469 8.992188 72.300781 8.917969 C 72.117188 8.84375 71.929688 8.804688 71.730469 8.804688 C 70.710938 8.804688 69.695312 8.855469 68.679688 8.957031 C 67.664062 9.058594 66.65625 9.210938 65.65625 9.410156 C 64.65625 9.613281 63.667969 9.859375 62.691406 10.160156 C 61.714844 10.457031 60.757812 10.800781 59.8125 11.191406 C 58.871094 11.585938 57.953125 12.023438 57.050781 12.503906 C 56.152344 12.988281 55.277344 13.515625 54.429688 14.082031 C 53.582031 14.652344 52.765625 15.261719 51.976562 15.910156 C 51.1875 16.558594 50.433594 17.246094 49.710938 17.96875 C 48.992188 18.695312 48.304688 19.449219 47.660156 20.242188 C 47.011719 21.03125 46.40625 21.851562 45.835938 22.703125 C 45.269531 23.554688 44.746094 24.429688 44.265625 25.332031 C 43.785156 26.234375 43.347656 27.160156 42.957031 28.105469 C 42.566406 29.050781 42.222656 30.011719 41.925781 30.992188 C 41.628906 31.972656 41.378906 32.960938 41.179688 33.964844 C 40.980469 34.96875 40.832031 35.980469 40.730469 37 C 40.628906 38.015625 40.578125 39.039062 40.574219 40.0625 L 40.574219 48.992188 C 40.574219 49.527344 40.601562 50.0625 40.65625 50.597656 C 40.707031 51.128906 40.785156 51.660156 40.890625 52.183594 C 40.992188 52.710938 41.125 53.230469 41.277344 53.742188 C 41.433594 54.257812 41.613281 54.761719 41.820312 55.257812 C 42.023438 55.753906 42.25 56.238281 42.503906 56.710938 C 42.753906 57.183594 43.03125 57.640625 43.328125 58.085938 C 43.625 58.535156 43.941406 58.964844 44.28125 59.378906 C 44.621094 59.792969 44.976562 60.1875 45.355469 60.570312 C 45.734375 60.949219 46.128906 61.308594 46.542969 61.648438 C 46.957031 61.988281 47.382812 62.304688 47.828125 62.605469 C 48.273438 62.902344 48.730469 63.179688 49.203125 63.429688 C 49.675781 63.683594 50.15625 63.914062 50.648438 64.117188 C 51.144531 64.324219 51.648438 64.503906 52.160156 64.660156 C 52.667969 64.8125 53.1875 64.945312 53.710938 65.050781 C 54.234375 65.152344 54.765625 65.230469 55.296875 65.285156 C 55.828125 65.335938 56.359375 65.363281 56.894531 65.363281 C 57.429688 65.363281 57.964844 65.335938 58.496094 65.285156 C 59.027344 65.230469 59.554688 65.152344 60.078125 65.050781 C 60.601562 64.945312 61.121094 64.8125 61.632812 64.660156 C 62.144531 64.503906 62.648438 64.324219 63.140625 64.117188 C 63.632812 63.914062 64.117188 63.683594 64.589844 63.429688 C 65.058594 63.179688 65.519531 62.902344 65.960938 62.605469 C 66.40625 62.304688 66.835938 61.988281 67.25 61.648438 C 67.660156 61.308594 68.058594 60.949219 68.433594 60.570312 C 68.8125 60.1875 69.171875 59.792969 69.511719 59.378906 C 69.851562 58.964844 70.167969 58.535156 70.464844 58.085938 C 70.761719 57.640625 71.035156 57.183594 71.289062 56.710938 C 71.539062 56.238281 71.769531 55.753906 71.972656 55.257812 C 72.175781 54.761719 72.355469 54.257812 72.511719 53.742188 C 72.667969 53.230469 72.796875 52.710938 72.902344 52.183594 C 73.003906 51.660156 73.082031 51.128906 73.136719 50.597656 C 73.1875 50.0625 73.214844 49.527344 73.214844 48.992188 C 73.214844 48.457031 73.1875 47.921875 73.136719 47.386719 C 73.082031 46.851562 73.003906 46.324219 72.902344 45.796875 C 72.796875 45.269531 72.667969 44.75 72.511719 44.238281 C 72.355469 43.726562 72.175781 43.222656 71.972656 42.726562 C 71.769531 42.230469 71.539062 41.746094 71.289062 41.273438 C 71.035156 40.800781 70.761719 40.339844 70.464844 39.894531 C 70.167969 39.449219 69.851562 39.019531 69.511719 38.605469 C 69.171875 38.191406 68.8125 37.792969 68.433594 37.414062 C 68.058594 37.035156 67.660156 36.675781 67.25 36.335938 C 66.835938 35.996094 66.40625 35.675781 65.960938 35.378906 C 65.519531 35.082031 65.058594 34.804688 64.589844 34.550781 C 64.117188 34.300781 63.632812 34.070312 63.140625 33.863281 C 62.648438 33.660156 62.144531 33.480469 61.632812 33.324219 C 61.121094 33.167969 60.601562 33.039062 60.078125 32.933594 C 59.554688 32.828125 59.027344 32.75 58.496094 32.699219 C 57.964844 32.644531 57.429688 32.617188 56.894531 32.617188 Z M 56.894531 32.617188 "/>
</g>
</g>
</svg>
